<svg width="50" height="43" viewBox="0 0 50 43" fill="none" xmlns="http://www.w3.org/2000/svg">
    <path d="M5.5802 0.752176C3.91778 0.336571 2.006 1.00154 0.343579 1.16778C-0.0720253 1.16778 -0.155146 1.83275 0.343579 1.91587C2.006 1.99899 4.0009 1.91587 5.5802 1.50026C5.91282 1.33402 5.91282 0.835297 5.5802 0.752176Z" fill="#49b8ee"/>
    <path d="M15.5543 2.99639C14.3906 1.8327 12.5619 1.58334 11.0658 1.66646C10.7333 1.66646 10.7333 2.16518 11.0658 2.16518C11.897 2.2483 12.6451 2.41455 13.3932 2.66391C14.0581 2.91327 14.64 3.24576 15.3049 3.49512C15.5543 3.66136 15.8037 3.24576 15.5543 2.99639Z" fill="#49b8ee"/>
    <path d="M24.2824 9.47963C23.9499 8.73155 23.285 8.06658 22.62 7.56785C22.0382 6.98601 21.2901 6.48728 20.6251 6.07168C20.3758 5.90543 20.1264 6.23792 20.3758 6.40416C21.0407 6.90288 21.6226 7.48473 22.1213 8.06658C22.7031 8.64842 23.1187 9.39651 23.7006 9.97836C23.9498 10.3108 24.4485 9.89524 24.2824 9.47963Z" fill="#49b8ee"/>
    <path d="M25.9445 14.6334C25.6951 14.2178 25.1131 14.5503 25.3626 14.9659C25.5289 15.3815 25.7782 15.8802 25.9445 16.2958C26.1107 16.8776 26.0275 17.4595 26.2768 17.9582C26.3599 18.2076 26.7756 18.2076 26.8587 17.9582C27.2744 17.0439 26.4432 15.5477 25.9445 14.6334Z" fill="#49b8ee"/>
    <path d="M28.1892 25.0232C28.1892 24.192 28.1892 23.3608 28.023 22.6127C27.9398 22.1971 27.4411 22.1971 27.4411 22.6127C27.358 23.3608 27.358 24.0258 27.358 24.7739C27.358 25.522 27.1918 26.2701 27.4411 27.0181C27.5242 27.3505 28.1061 27.3505 28.1892 27.0181C28.3556 26.3532 28.2725 25.6882 28.1892 25.0232Z" fill="#49b8ee"/>
    <path d="M26.1937 32.3378C25.8612 33.1691 25.5288 34.0001 25.03 34.8313C24.6144 35.5796 24.0326 36.3277 23.9495 37.1589C23.8663 37.5745 24.4482 37.6576 24.6975 37.4912C25.3625 36.9095 25.6951 35.9119 26.0275 35.0807C26.4432 34.2495 26.6925 33.4184 26.8587 32.5872C26.9418 32.0885 26.2767 31.9222 26.1937 32.3378Z" fill="#49b8ee"/>
    <path d="M22.454 38.7385C21.9553 39.3203 21.4566 39.9854 20.9579 40.4841C20.7085 40.7334 20.376 40.9828 20.0435 41.149C19.711 41.3153 19.5448 41.3153 19.2954 41.6478C19.1292 41.8971 19.2954 42.2296 19.5448 42.3127C20.2929 42.4791 20.9579 41.7309 21.4566 41.2322C22.0384 40.5672 22.454 39.8192 22.8696 38.988C22.9529 38.7385 22.6203 38.4892 22.454 38.7385Z" fill="#49b8ee"/>
    <path d="M16.0531 40.8163C15.6375 41.1488 15.1388 41.3981 14.6401 41.3981C14.2244 41.3981 13.7257 41.315 13.3932 41.6475C13.227 41.8137 13.227 42.0631 13.3932 42.2293C14.2244 43.0604 15.8869 41.8969 16.3856 41.2318C16.552 40.9825 16.3026 40.6499 16.0531 40.8163Z" fill="#49b8ee"/>
    <path d="M10.7344 39.0705C10.0694 38.9875 9.3213 38.8211 8.65633 38.5718C7.90824 38.2394 7.57576 37.6576 7.16015 36.9925C6.91079 36.66 6.41206 36.7431 6.32894 37.2418C6.24582 39.4861 9.07193 39.9017 10.7344 39.6523C10.9837 39.5693 10.9837 39.0705 10.7344 39.0705Z" fill="#49b8ee"/>
    <path d="M6.5777 33.5848C5.91273 32.338 6.07897 31.0912 5.82961 29.7612C5.74649 29.4289 5.24776 29.4289 5.16464 29.7612C4.91528 31.1743 5.33089 32.6705 6.16209 33.8341C6.32834 34.0835 6.66096 33.9173 6.5777 33.5848Z" fill="#49b8ee"/>
    <path d="M6.90969 19.2879C5.41351 20.7009 5.08103 22.7791 5.16415 24.6907C5.16415 25.0232 5.746 25.0232 5.746 24.6907C5.82912 22.9452 6.32784 21.1997 7.40841 19.7867C7.74103 19.4541 7.24231 18.9554 6.90969 19.2879Z" fill="#49b8ee"/>
    <path d="M11.7321 13.3032C10.2359 14.0513 9.07225 15.4644 8.15792 16.8774C7.90856 17.2099 8.49041 17.5424 8.65665 17.2099C9.6541 15.9631 10.9009 14.9656 12.0646 13.8851C12.3971 13.5526 12.0645 13.137 11.7321 13.3032Z" fill="#49b8ee"/>
    <path d="M16.6355 8.48242C15.4719 8.48242 14.1419 9.47987 13.3938 10.3111C13.0613 10.6436 13.5601 11.1423 13.8926 10.8098C14.3082 10.3942 14.8069 10.0617 15.3056 9.81236C15.8043 9.56299 16.3862 9.39675 16.8849 9.06427C17.1343 8.89803 16.8849 8.48242 16.6355 8.48242Z" fill="#49b8ee"/>
    <path d="M27.7741 4.99121C27.1091 4.99121 26.4441 5.24057 25.7792 5.32369C24.948 5.48994 24.1168 5.57306 23.3687 5.90554C22.9531 6.07178 23.1193 6.65363 23.5349 6.57051C24.283 6.40427 25.1142 6.32115 25.8623 6.23803C26.5273 6.1549 27.3585 6.1549 27.9403 5.7393C28.3559 5.57306 28.1895 4.99121 27.7741 4.99121Z" fill="#49b8ee"/>
    <path d="M35.1711 4.15998C34.0905 3.91062 32.7606 4.15998 31.5969 4.2431C31.1813 4.2431 31.1813 4.82495 31.5969 4.82495C32.7606 4.90807 34.0074 5.15743 35.1711 4.90807C35.5865 4.82495 35.5865 4.2431 35.1711 4.15998Z" fill="#49b8ee"/>
    <path d="M42.9017 4.57558C42.3198 4.40934 41.738 4.49246 41.156 4.49246C40.5743 4.49246 39.9092 4.49246 39.3273 4.57558C38.9117 4.57558 38.9117 5.24055 39.3273 5.24055C39.9092 5.24055 40.5743 5.24055 41.156 5.32367C41.7378 5.32367 42.3197 5.40679 42.9017 5.24055C43.2341 5.24055 43.2341 4.74182 42.9017 4.57558Z" fill="#49b8ee"/>
    <path d="M49.8005 4.82497C48.7199 3.7444 47.6393 2.74695 46.4758 1.83262C45.6446 1.16765 44.3976 -0.0791642 43.317 0.0039567C42.9014 0.0039567 42.569 0.502682 42.8183 0.918287C43.317 1.7495 44.4807 2.24822 45.2288 2.74695C46.1432 3.41192 47.0575 4.24312 47.9718 5.07433C46.3094 5.7393 44.647 6.65363 43.0677 7.48484C42.569 7.7342 42.9014 8.64853 43.4834 8.48229C45.5614 7.81733 47.3901 6.48739 49.5513 6.07178C50.0498 5.98866 50.1331 5.24058 49.8005 4.82497Z" fill="#49b8ee"/>
</svg>
