<svg width="80" height="75" viewBox="0 0 80 75" fill="none" xmlns="http://www.w3.org/2000/svg">
<path d="M27.6953 35.4425C27.5858 35.333 27.5037 35.1962 27.5037 35.032C27.5037 34.7035 27.75 34.4572 28.0784 34.4573L66.1207 34.4572C66.4492 34.4572 66.6955 34.7035 66.6955 35.0319C66.6954 35.3603 66.4492 35.6067 66.1207 35.6066L28.0784 35.6067C27.9416 35.6341 27.8048 35.552 27.6953 35.4425Z" fill="#FF9C00"/>
<path d="M3.55771 35.4428C3.44823 35.3333 3.36611 35.1965 3.36611 35.0323C3.36611 34.7038 3.61241 34.4575 3.94082 34.4576L5.30918 34.4576C5.63767 34.4576 5.88396 34.7038 5.88389 35.0323C5.88389 35.3607 5.63759 35.607 5.30918 35.607L3.94082 35.607C3.77665 35.607 3.66718 35.5523 3.55771 35.4428Z" fill="#FF9C00"/>
<path d="M7.66234 35.4431C7.55287 35.3336 7.47075 35.1968 7.47075 35.0326C7.47075 34.7041 7.71704 34.4578 8.04546 34.4579L10.7823 34.4579C11.1108 34.4579 11.3571 34.7041 11.357 35.0326C11.357 35.361 11.1107 35.6073 10.7823 35.6073L8.04546 35.6073C7.90864 35.6347 7.77181 35.5526 7.66234 35.4431ZM13.1908 35.4431C13.0813 35.3336 12.9992 35.1968 12.9992 35.0326C12.9992 34.7041 13.2455 34.4578 13.5739 34.4579L16.3107 34.4578C16.6392 34.4578 16.8855 34.7041 16.8854 35.0326C16.8854 35.361 16.6392 35.6073 16.3107 35.6073L13.5739 35.6073C13.4371 35.6346 13.3002 35.5526 13.1908 35.4431ZM18.7193 35.443C18.6098 35.3335 18.5277 35.1967 18.5277 35.0325C18.5277 34.704 18.774 34.4577 19.1024 34.4578L21.8392 34.4578C22.1677 34.4578 22.414 34.7041 22.4139 35.0325C22.4139 35.361 22.1676 35.6073 21.8392 35.6072L19.1024 35.6072C18.9656 35.6346 18.8287 35.5525 18.7193 35.443Z" fill="#FF9C00"/>
<path d="M24.2481 35.4428C24.1387 35.3333 24.0565 35.1965 24.0565 35.0323C24.0565 34.7038 24.3028 34.4575 24.6312 34.4576L25.9996 34.4576C26.3281 34.4576 26.5744 34.7038 26.5743 35.0323C26.5743 35.3607 26.328 35.607 25.9996 35.607L24.6312 35.607C24.4671 35.607 24.3576 35.5523 24.2481 35.4428Z" fill="#FF9C00"/>
<path d="M67.7378 33.4448C68.6135 34.3206 68.6135 35.7438 67.7378 36.6195C66.862 37.4953 65.4388 37.4953 64.563 36.6195C63.6872 35.7438 63.6872 34.3206 64.563 33.4448C65.4662 32.5963 66.8893 32.5964 67.7378 33.4448Z" fill="#FF9C00"/>
<path d="M64.5894 36.5922C63.7136 35.7165 63.7136 34.2933 64.5894 33.4175C65.4652 32.5417 66.8884 32.5417 67.7641 33.4175" fill="white"/>
<path d="M64.1798 37.0022C63.6598 36.4822 63.3588 35.7433 63.3588 35.0318C63.3588 34.2654 63.6598 33.5813 64.1798 33.0613C64.6998 32.5413 65.4388 32.2402 66.1503 32.2402C66.9166 32.2401 67.6009 32.5412 68.1209 33.0612C68.6409 33.5812 68.942 34.3202 68.942 35.0317C68.942 35.7981 68.6409 36.4822 68.1209 37.0022C67.6009 37.5222 66.8619 37.8233 66.1504 37.8233C65.4114 37.8507 64.7272 37.5496 64.1798 37.0022ZM67.3272 33.8549C67.0261 33.5539 66.6156 33.3623 66.1777 33.3623C65.7398 33.3623 65.3292 33.5539 65.0282 33.8549C64.7271 34.156 64.5355 34.5665 64.5355 35.0044C64.5355 35.4423 64.7271 35.8528 65.0282 36.1539C65.3292 36.455 65.7398 36.6466 66.1777 36.6466C66.6156 36.6466 67.0261 36.455 67.3272 36.1539C67.6282 35.8528 67.8198 35.4423 67.8198 35.0044C67.7925 34.5939 67.6556 34.1833 67.3272 33.8549Z" fill="#FF9C00"/>
<path d="M5.52878 33.4719C6.40455 34.3477 6.40455 35.7709 5.52878 36.6466C4.65301 37.5224 3.22981 37.5224 2.35403 36.6466C1.47826 35.7709 1.47826 34.3477 2.35403 33.4719C3.25723 32.5687 4.65301 32.5961 5.52878 33.4719Z" fill="#FF9C00"/>
<path d="M2.38235 36.6192C1.50658 35.7434 1.50658 34.3202 2.38235 33.4445C3.25813 32.5687 4.68133 32.5687 5.5571 33.4445" fill="white"/>
<path d="M1.97092 37.0301C1.45091 36.5101 1.14985 35.7711 1.14984 35.0596C1.14984 34.2932 1.45091 33.6091 1.97092 33.0891C2.49093 32.5691 3.22988 32.268 3.9414 32.268C4.70778 32.268 5.39189 32.5691 5.91189 33.0891C6.4319 33.6091 6.73297 34.3481 6.73297 35.0596C6.73297 35.826 6.4319 36.5101 5.91189 37.0301C5.39189 37.5501 4.65293 37.8511 3.94141 37.8511C3.20253 37.8238 2.49093 37.5501 1.97092 37.0301ZM5.11831 33.8827C4.81725 33.5816 4.40671 33.39 3.96883 33.39C3.53094 33.39 3.12041 33.5816 2.81934 33.8827C2.51828 34.1837 2.32668 34.5943 2.32668 35.0322C2.32668 35.47 2.51828 35.8806 2.81934 36.1816C3.12041 36.4827 3.53094 36.6743 3.96883 36.6743C4.40671 36.6743 4.81725 36.4827 5.11832 36.1816C5.41938 35.8806 5.61097 35.47 5.61097 35.0322C5.61097 34.5943 5.41938 34.1837 5.11831 33.8827Z" fill="#FF9C00"/>
<path d="M37.6054 40.351C37.496 40.2415 37.4139 40.1047 37.4139 39.9404C37.4139 39.6119 37.6601 39.3656 37.9886 39.3657L76.0309 39.3656C76.3594 39.3656 76.6057 39.6119 76.6056 39.9404C76.6055 40.2688 76.3593 40.5151 76.0309 40.5151L37.9886 40.5151C37.8517 40.5426 37.7149 40.4604 37.6054 40.351Z" fill="#FF9C00"/>
<path d="M13.4669 40.3509C13.3574 40.2414 13.2753 40.1046 13.2753 39.9403C13.2753 39.6118 13.5216 39.3655 13.85 39.3656L15.2184 39.3656C15.5468 39.3656 15.7931 39.6119 15.7931 39.9403C15.7931 40.2688 15.5468 40.5151 15.2184 40.515L13.85 40.515C13.6858 40.5151 13.5764 40.4603 13.4669 40.3509Z" fill="#FF9C00"/>
<path d="M17.5725 40.3513C17.463 40.2418 17.3809 40.105 17.3809 39.9407C17.3809 39.6122 17.6272 39.366 17.9556 39.366L20.6925 39.366C21.021 39.366 21.2673 39.6123 21.2672 39.9407C21.2671 40.2691 21.0209 40.5155 20.6925 40.5154L17.9556 40.5154C17.8188 40.5429 17.682 40.4607 17.5725 40.3513ZM23.1009 40.3513C22.9915 40.2418 22.9093 40.105 22.9093 39.9407C22.9093 39.6122 23.1556 39.366 23.484 39.366L26.2209 39.366C26.5494 39.366 26.7957 39.6123 26.7956 39.9407C26.7956 40.2692 26.5493 40.5155 26.2209 40.5154L23.484 40.5154C23.3473 40.5428 23.2104 40.4607 23.1009 40.3513ZM28.6294 40.3512C28.5199 40.2417 28.4378 40.1049 28.4378 39.9407C28.4378 39.6122 28.6841 39.3659 29.0125 39.366L31.7494 39.3659C32.0779 39.3659 32.3242 39.6122 32.3241 39.9407C32.3241 40.2691 32.0778 40.5154 31.7494 40.5154L29.0125 40.5154C28.8757 40.5428 28.7389 40.4607 28.6294 40.3512Z" fill="#FF9C00"/>
<path d="M34.1573 40.3509C34.0478 40.2414 33.9657 40.1046 33.9657 39.9403C33.9657 39.6118 34.212 39.3655 34.5404 39.3656L35.9088 39.3656C36.2373 39.3656 36.4836 39.6119 36.4835 39.9403C36.4835 40.2688 36.2372 40.5151 35.9088 40.515L34.5404 40.5151C34.3763 40.5151 34.2668 40.4603 34.1573 40.3509Z" fill="#FF9C00"/>
<path d="M77.646 38.3532C78.5217 39.229 78.5217 40.6522 77.646 41.528C76.7702 42.4037 75.347 42.4037 74.4712 41.528C73.5954 40.6522 73.5954 39.229 74.4712 38.3532C75.3744 37.5047 76.7975 37.5048 77.646 38.3532Z" fill="#FF9C00"/>
<path d="M74.4976 41.5008C73.6218 40.625 73.6218 39.2018 74.4976 38.326C75.3734 37.4502 76.7966 37.4502 77.6723 38.326" fill="white"/>
<path d="M74.088 41.911C73.568 41.391 73.267 40.6521 73.267 39.9406C73.267 39.1742 73.568 38.4901 74.088 37.9701C74.608 37.4501 75.347 37.149 76.0585 37.149C76.8248 37.1489 77.5091 37.45 78.0291 37.97C78.5491 38.49 78.8502 39.229 78.8502 39.9405C78.8502 40.7069 78.5491 41.391 78.0291 41.911C77.5091 42.431 76.7701 42.732 76.0586 42.732C75.3196 42.7595 74.6354 42.4584 74.088 41.911ZM77.2354 38.7637C76.9343 38.4627 76.5238 38.2711 76.0859 38.2711C75.648 38.2711 75.2374 38.4627 74.9364 38.7637C74.6353 39.0648 74.4437 39.4753 74.4437 39.9132C74.4437 40.3511 74.6353 40.7616 74.9364 41.0627C75.2374 41.3638 75.648 41.5554 76.0859 41.5554C76.5238 41.5554 76.9343 41.3638 77.2354 41.0627C77.5364 40.7616 77.728 40.3511 77.728 39.9132C77.7007 39.5027 77.5638 39.0921 77.2354 38.7637Z" fill="#FF9C00"/>
<path d="M15.437 38.3803C16.3128 39.2561 16.3128 40.6793 15.437 41.5551C14.5612 42.4308 13.138 42.4308 12.2622 41.5551C11.3865 40.6793 11.3865 39.2561 12.2622 38.3803C13.1654 37.4771 14.5612 37.5046 15.437 38.3803Z" fill="#FF9C00"/>
<path d="M12.2906 41.5281C11.4148 40.6523 11.4148 39.2291 12.2906 38.3533C13.1663 37.4776 14.5895 37.4776 15.4653 38.3533" fill="white"/>
<path d="M11.8791 41.9385C11.3591 41.4185 11.058 40.6796 11.058 39.9681C11.058 39.2017 11.3591 38.5176 11.8791 37.9976C12.3991 37.4776 13.1381 37.1765 13.8496 37.1765C14.616 37.1765 15.3001 37.4776 15.8201 37.9976C16.3401 38.5176 16.6412 39.2565 16.6412 39.9681C16.6412 40.7344 16.3401 41.4185 15.8201 41.9385C15.3001 42.4586 14.5611 42.7596 13.8496 42.7596C13.1107 42.7323 12.3991 42.4586 11.8791 41.9385ZM15.0265 38.7912C14.7255 38.4901 14.3149 38.2985 13.877 38.2985C13.4391 38.2985 13.0286 38.4901 12.7275 38.7912C12.4265 39.0922 12.2349 39.5028 12.2349 39.9406C12.2349 40.3785 12.4265 40.7891 12.7275 41.0901C13.0286 41.3912 13.4391 41.5828 13.877 41.5828C14.3149 41.5828 14.7255 41.3912 15.0265 41.0901C15.3276 40.7891 15.5192 40.3785 15.5192 39.9406C15.5192 39.5028 15.3276 39.0922 15.0265 38.7912Z" fill="#FF9C00"/>
</svg>
