<svg width="20" height="24" viewBox="0 0 20 24" fill="none" xmlns="http://www.w3.org/2000/svg">
<path d="M16.8889 12.1839V10.0567C16.8889 6.95356 14.8262 4.32339 12 3.46432V2.50121C12 1.39842 11.1028 0.501221 10 0.501221C8.89722 0.501221 8.00003 1.39842 8.00003 2.50121V3.46432C5.17381 4.32339 3.11115 6.95351 3.11115 10.0567V12.1839C3.11115 14.9098 2.07213 17.4945 0.185518 19.462C0.00062972 19.6548 -0.0513257 19.9393 0.053474 20.1849C0.158274 20.4306 0.399606 20.59 0.666717 20.59H6.73377C7.04345 22.1097 8.39029 23.2567 10 23.2567C11.6098 23.2567 12.9565 22.1097 13.2663 20.59H19.3333C19.6004 20.59 19.8417 20.4306 19.9465 20.1849C20.0513 19.9393 19.9994 19.6548 19.8145 19.462C17.9279 17.4945 16.8889 14.9098 16.8889 12.1839ZM9.33336 2.50121C9.33336 2.13362 9.63242 1.83455 10 1.83455C10.3676 1.83455 10.6667 2.13362 10.6667 2.50121V3.20023C10.4473 3.17908 10.2249 3.16788 10 3.16788C9.77513 3.16788 9.55278 3.17908 9.33336 3.20023V2.50121ZM10 21.9234C9.13091 21.9234 8.38989 21.366 8.11469 20.59H11.8853C11.6101 21.366 10.8691 21.9234 10 21.9234ZM2.1036 19.2567C3.62186 17.2215 4.44448 14.7586 4.44448 12.1839V10.0567C4.44448 6.99342 6.9367 4.50121 10 4.50121C13.0633 4.50121 15.5556 6.99342 15.5556 10.0567V12.1839C15.5556 14.7586 16.3782 17.2215 17.8965 19.2567H2.1036Z" fill="#FF9C00"/>
<path d="M18.6673 10.0569C18.6673 10.425 18.9657 10.7235 19.3339 10.7235C19.7021 10.7235 20.0006 10.425 20.0006 10.0569C20.0006 7.38576 18.9604 4.87453 17.0717 2.98578C16.8113 2.72547 16.3892 2.72542 16.1289 2.98578C15.8685 3.24613 15.8685 3.66822 16.1289 3.92857C17.7658 5.5655 18.6673 7.7419 18.6673 10.0569Z" fill="white"/>
<path d="M0.666665 10.7235C1.03484 10.7235 1.33333 10.425 1.33333 10.0568C1.33333 7.74191 2.23484 5.56552 3.87172 3.92859C4.13208 3.66824 4.13208 3.24615 3.87172 2.98579C3.61141 2.72544 3.18928 2.72544 2.92892 2.98579C1.04017 4.87454 0 7.38574 0 10.0568C0 10.425 0.298488 10.7235 0.666665 10.7235Z" fill="white"/>
</svg>
