<?xml version="1.0" encoding="utf-8"?>
<!-- Generator: Adobe Illustrator 23.1.1, SVG Export Plug-In . SVG Version: 6.00 Build 0)  -->
<svg version="1.1" id="Layer_1" xmlns="http://www.w3.org/2000/svg" xmlns:xlink="http://www.w3.org/1999/xlink" x="0px" y="0px"
	 viewBox="0 0 60 60" style="enable-background:new 0 0 60 60;" xml:space="preserve">
<style type="text/css">
	.st0{fill:#FFFFFF;}
</style>
<rect width="60" height="60"/>
<path class="st0" d="M47.07,42.62V39.3c0-4.99-4.04-9.03-9.03-9.03h-0.37c4.58,0,8.3-3.71,8.31-8.3c0,0,0-0.01,0-0.01l0,0
	c0-4.59-3.72-8.31-8.31-8.31h-14.5c-4.59,0-8.31,3.72-8.31,8.31l0,0l0,0c0,4.59,3.72,8.31,8.31,8.31l0,0h-0.37
	c-4.99,0-9.03,4.04-9.03,9.03v3.32c0,2.35-1.9,4.25-4.25,4.25h3.81c2.35,0,4.25-1.9,4.25-4.25V39.3c0-4.99,3.32-9.03,8.31-9.03h0.81
	c-4.59,0-7.57-3.72-7.57-8.31l0,0c0-4.49,3.56-8.17,8.05-8.31c1.44,0.05,2.58,1.22,2.59,2.66v27.86c0,1.48-1.2,2.68-2.68,2.68
	c0,0,0,0,0,0h6.69c-1.48,0-2.68-1.2-2.68-2.68l0,0V16.32c0-1.43,1.13-2.61,2.56-2.67c4.49,0.13,8.07,3.8,8.07,8.3l0,0
	c0,4.59-2.99,8.31-7.57,8.31h0.81c4.99,0,8.31,4.06,8.31,9.03v3.32c0,2.35,1.9,4.25,4.25,4.25h3.81
	C48.98,46.85,47.08,44.96,47.07,42.62z"/>
</svg>
