<svg width="70" height="60" viewBox="0 0 70 60" fill="none" xmlns="http://www.w3.org/2000/svg">
<path d="M7.81228 1.05305C5.4849 0.4712 2.8084 1.40215 0.481012 1.63489C-0.100836 1.63489 -0.217205 2.56585 0.481012 2.68222C2.8084 2.79859 5.60127 2.68222 7.81228 2.10037C8.27795 1.86763 8.27795 1.16942 7.81228 1.05305Z" fill="#4069FF"/>
<path d="M21.7766 4.19485C20.1474 2.56568 17.5873 2.21657 15.4927 2.33294C15.0272 2.33294 15.0272 3.03116 15.4927 3.03116C16.6564 3.14753 17.7037 3.38027 18.751 3.72938C19.682 4.07849 20.4965 4.54396 21.4275 4.89307C21.7766 5.12581 22.1257 4.54396 21.7766 4.19485Z" fill="#4069FF"/>
<path d="M33.9958 13.2716C33.5303 12.2243 32.5994 11.2933 31.6684 10.5951C30.8538 9.78051 29.8065 9.08229 28.8755 8.50044C28.5264 8.2677 28.1773 8.73318 28.5264 8.96592C29.4574 9.66414 30.272 10.4787 30.9702 11.2933C31.7848 12.1079 32.3666 13.1552 33.1812 13.9698C33.5301 14.4353 34.2284 13.8534 33.9958 13.2716Z" fill="#4069FF"/>
<path d="M36.3227 20.4866C35.9736 19.9048 35.1588 20.3703 35.5081 20.9521C35.7408 21.534 36.0899 22.2322 36.3227 22.814C36.5554 23.6286 36.4388 24.4432 36.7879 25.1414C36.9043 25.4905 37.4862 25.4905 37.6025 25.1414C38.1846 23.8613 37.0209 21.7667 36.3227 20.4866Z" fill="#4069FF"/>
<path d="M39.4653 35.0325C39.4653 33.8688 39.4653 32.7051 39.2325 31.6578C39.1162 31.076 38.418 31.076 38.418 31.6578C38.3016 32.7051 38.3016 33.6361 38.3016 34.6834C38.3016 35.7308 38.0688 36.7781 38.418 37.8254C38.5343 38.2907 39.3489 38.2907 39.4653 37.8254C39.6982 36.8944 39.5818 35.9635 39.4653 35.0325Z" fill="#4069FF"/>
<path d="M36.6718 45.2731C36.2063 46.4368 35.7409 47.6003 35.0426 48.764C34.4608 49.8115 33.6462 50.8589 33.5298 52.0226C33.4135 52.6044 34.228 52.7208 34.5772 52.4878C35.5081 51.6734 35.9738 50.2768 36.4391 49.1131C37.0211 47.9494 37.37 46.7859 37.6028 45.6222C37.7191 44.924 36.788 44.6913 36.6718 45.2731Z" fill="#4069FF"/>
<path d="M31.4356 54.234C30.7374 55.0484 30.0392 55.9795 29.341 56.6777C28.9919 57.0268 28.5264 57.3759 28.0609 57.6087C27.5955 57.8414 27.3627 57.8414 27.0136 58.3069C26.7809 58.656 27.0136 59.1215 27.3627 59.2378C28.41 59.4708 29.341 58.4233 30.0392 57.725C30.8538 56.7941 31.4356 55.7469 32.0175 54.5833C32.134 54.234 31.6684 53.8848 31.4356 54.234Z" fill="#4069FF"/>
<path d="M22.4745 57.1428C21.8927 57.6083 21.1945 57.9574 20.4963 57.9574C19.9144 57.9574 19.2162 57.841 18.7507 58.3065C18.518 58.5392 18.518 58.8883 18.7507 59.1211C19.9144 60.2846 22.2418 58.6556 22.94 57.7245C23.173 57.3755 22.8238 56.9099 22.4745 57.1428Z" fill="#4069FF"/>
<path d="M15.0275 54.6988C14.0966 54.5826 13.0492 54.3497 12.1183 54.0006C11.071 53.5353 10.6055 52.7207 10.0236 51.7895C9.67452 51.3241 8.9763 51.4404 8.85993 52.1386C8.74356 55.2806 12.7001 55.8625 15.0275 55.5134C15.3766 55.3972 15.3766 54.6988 15.0275 54.6988Z" fill="#4069FF"/>
<path d="M9.20878 47.0189C8.27783 45.2733 8.51056 43.5278 8.16146 41.6659C8.04509 41.2006 7.34687 41.2006 7.2305 41.6659C6.88139 43.6441 7.46324 45.7388 8.62693 47.368C8.85967 47.7171 9.32534 47.4843 9.20878 47.0189Z" fill="#4069FF"/>
<path d="M9.67415 27.0031C7.5795 28.9814 7.11403 31.8908 7.2304 34.5671C7.2304 35.0326 8.04498 35.0326 8.04498 34.5671C8.16135 32.1234 8.85957 29.6796 10.3724 27.7015C10.838 27.2359 10.1398 26.5376 9.67415 27.0031Z" fill="#4069FF"/>
<path d="M16.4246 18.6245C14.3299 19.6718 12.7008 21.6501 11.4207 23.6284C11.0716 24.0939 11.8862 24.5594 12.1189 24.0939C13.5154 22.3483 15.2609 20.9519 16.8901 19.4391C17.3555 18.9736 16.8899 18.3918 16.4246 18.6245Z" fill="#4069FF"/>
<path d="M23.2896 11.8755C21.6604 11.8755 19.7985 13.2719 18.7512 14.4356C18.2857 14.9011 18.9839 15.5993 19.4494 15.1338C20.0312 14.552 20.7294 14.0865 21.4277 13.7374C22.1259 13.3883 22.9405 13.1556 23.6387 12.6901C23.9878 12.4573 23.6387 11.8755 23.2896 11.8755Z" fill="#4069FF"/>
<path d="M38.8835 6.98779C37.9526 6.98779 37.0216 7.3369 36.0907 7.45327C34.927 7.68601 33.7633 7.80238 32.7159 8.26786C32.1341 8.5006 32.3668 9.31518 32.9487 9.19881C33.996 8.96607 35.1597 8.8497 36.207 8.73333C37.138 8.61696 38.3017 8.61697 39.1163 8.03512C39.6981 7.80238 39.4652 6.98779 38.8835 6.98779Z" fill="#4069FF"/>
<path d="M49.2401 5.82402C47.7273 5.47491 45.8654 5.82402 44.2362 5.94039C43.6543 5.94039 43.6543 6.75498 44.2362 6.75498C45.8654 6.87134 47.6109 7.22045 49.2401 6.87134C49.8217 6.75498 49.8217 5.94039 49.2401 5.82402Z" fill="#4069FF"/>
<path d="M60.0625 6.40572C59.2479 6.17298 58.4334 6.28935 57.6186 6.28935C56.8042 6.28935 55.873 6.28935 55.0585 6.40572C54.4766 6.40572 54.4766 7.33667 55.0585 7.33667C55.873 7.33667 56.8042 7.33667 57.6186 7.45304C58.4332 7.45304 59.2478 7.56941 60.0625 7.33667C60.528 7.33667 60.528 6.63845 60.0625 6.40572Z" fill="#4069FF"/>
<path d="M69.7205 6.75496C68.2077 5.24216 66.6949 3.84573 65.0659 2.56567C63.9022 1.63471 62.1565 -0.11083 60.6437 0.00553938C60.0618 0.00553938 59.5963 0.703756 59.9454 1.2856C60.6437 2.4493 62.2728 3.14751 63.3202 3.84573C64.6002 4.77669 65.8803 5.94038 67.1604 7.10407C64.833 8.03503 62.5056 9.31509 60.2946 10.4788C59.5963 10.8279 60.0618 12.108 60.8766 11.8752C63.7858 10.9443 66.346 9.08235 69.3716 8.50051C70.0696 8.38414 70.1861 7.33681 69.7205 6.75496Z" fill="#4069FF"/>
</svg>
